<?xml version="1.0" encoding="UTF-8" standalone="no"?>
<!-- Generator: Adobe Illustrator 16.0.0, SVG Export Plug-In . SVG Version: 6.00 Build 0)  -->

<svg
   xmlns:dc="http://purl.org/dc/elements/1.1/"
   xmlns:cc="http://creativecommons.org/ns#"
   xmlns:rdf="http://www.w3.org/1999/02/22-rdf-syntax-ns#"
   xmlns:svg="http://www.w3.org/2000/svg"
   xmlns="http://www.w3.org/2000/svg"
   xmlns:sodipodi="http://sodipodi.sourceforge.net/DTD/sodipodi-0.dtd"
   xmlns:inkscape="http://www.inkscape.org/namespaces/inkscape"
   version="1.1"
   id="Layer_1"
   x="0px"
   y="0px"
   width="245"
   height="285"
   viewBox="0 0 245 285"
   enable-background="new 0 0 400 300"
   xml:space="preserve"
   sodipodi:docname="Secberry_logo.svg"
   inkscape:version="0.92.5 (2060ec1f9f, 2020-04-08)"><metadata
   id="metadata133"><rdf:RDF><cc:Work
       rdf:about=""><dc:format>image/svg+xml</dc:format><dc:type
         rdf:resource="http://purl.org/dc/dcmitype/StillImage" /><dc:title></dc:title></cc:Work></rdf:RDF></metadata><defs
   id="defs131" /><sodipodi:namedview
   pagecolor="#ffffff"
   bordercolor="#666666"
   borderopacity="1"
   objecttolerance="10"
   gridtolerance="10"
   guidetolerance="10"
   inkscape:pageopacity="0"
   inkscape:pageshadow="2"
   inkscape:window-width="1360"
   inkscape:window-height="745"
   id="namedview129"
   showgrid="false"
   inkscape:zoom="1.5733333"
   inkscape:cx="12.312459"
   inkscape:cy="149.74095"
   inkscape:window-x="-8"
   inkscape:window-y="-8"
   inkscape:window-maximized="1"
   inkscape:current-layer="Layer_1" />
<g
   id="g4"
   transform="translate(0,-15)"
   style="fill-rule:nonzero">
	<path
   d="m 16.311,59.736 c 66.871,-26.15 142.668,-25.225 209.915,-0.884 0.38,20.886 0.294,41.857 0.127,62.786 -53.898,-13.685 -110.832,-21.94 -165.745,-9.012 0.086,-6.948 0.212,-13.897 0.384,-20.802 47.835,-11.244 97.607,-6.737 145.106,4.043 0.041,-7.497 0.085,-14.952 0.125,-22.404 C 151.398,55.904 91.308,55.819 36.48,73.378 c 0.044,22.952 -0.125,45.9 0.254,68.894 61.902,-14.782 127.297,-14.067 188.354,4.295 -8.546,59.457 -53.354,105.357 -102.998,134.958 -37.271,-21.519 -71.586,-50.571 -91.882,-89.188 43.203,-16.929 90.788,-18.274 136.224,-11.706 -3.033,6.317 -6.151,12.594 -9.266,18.865 -31.792,-1.938 -64.046,-2.188 -95.208,5.265 14.946,19.96 33.688,37.14 55.037,49.984 4.758,3.705 10.021,-0.632 14.105,-3.117 32.297,-21.687 58.194,-53.101 70.827,-90.112 C 142.258,145.724 78.756,150.313 19.887,167.37 14.036,131.784 17.237,95.613 16.311,59.736 Z"
   id="path2"
   inkscape:connector-curvature="0"
   style="fill:#44e01e;fill-rule:nonzero;fill-opacity:1" />
</g>
<path
   d="m 130.925,201.715 c 0.01,0.004 0.032,0.014 0.045,0.016 -0.013,-0.002 -0.035,-0.012 -0.045,-0.016 z"
   id="path6"
   inkscape:connector-curvature="0"
   style="fill:#f11930;fill-opacity:1" />
<path
   d="m 127.141,202.176 c 0.007,0.008 0.018,0.026 0.021,0.034 -0.005,-0.008 -0.014,-0.026 -0.021,-0.034 z"
   id="path8"
   inkscape:connector-curvature="0"
   style="fill:#f11930;fill-opacity:1" />
<path
   d="m 116.425,203.921 c 0.006,0.011 0.013,0.028 0.018,0.037 -0.005,-0.009 -0.012,-0.026 -0.018,-0.037 z"
   id="path10"
   inkscape:connector-curvature="0"
   style="fill:#f11930;fill-opacity:1" />
<path
   d="m 134.396,204.854 c 0.004,0.012 0.016,0.031 0.021,0.041 -0.007,-0.01 -0.017,-0.032 -0.021,-0.041 z"
   id="path12"
   inkscape:connector-curvature="0"
   style="fill:#f11930;fill-opacity:1" />
<path
   d="m 125.25,205.366 c 0.01,-0.007 0.025,-0.017 0.035,-0.021 -0.008,0.005 -0.025,0.014 -0.035,0.021 z"
   id="path14"
   inkscape:connector-curvature="0"
   style="fill:#f11930;fill-opacity:1" />
<path
   d="m 113.903,206.932 c 0.014,-0.005 0.033,-0.012 0.044,-0.016 -0.011,0.004 -0.032,0.011 -0.044,0.016 z"
   id="path16"
   inkscape:connector-curvature="0"
   style="fill:#f11930;fill-opacity:1" />
<path
   d="m 124.627,206.93 c 0.009,-0.006 0.024,-0.017 0.036,-0.021 -0.01,0.004 -0.026,0.015 -0.036,0.021 z"
   id="path18"
   inkscape:connector-curvature="0"
   style="fill:#f11930;fill-opacity:1" />
<path
   d="m 132.334,207.08 c 0.009,0.007 0.025,0.02 0.036,0.025 -0.009,-0.005 -0.026,-0.019 -0.036,-0.025 z"
   id="path20"
   inkscape:connector-curvature="0"
   style="fill:#f11930;fill-opacity:1" />
<path
   d="m 132.796,207.386 c 0.011,0.009 0.032,0.021 0.042,0.026 -0.01,-0.006 -0.031,-0.017 -0.042,-0.026 z"
   id="path22"
   inkscape:connector-curvature="0"
   style="fill:#f11930;fill-opacity:1" />
<path
   d="m 119.906,209.113 c 0.006,0.011 0.018,0.033 0.021,0.044 -0.005,-0.011 -0.016,-0.033 -0.021,-0.044 z"
   id="path24"
   inkscape:connector-curvature="0"
   style="fill:#f11930;fill-opacity:1" />
<path
   d="m 110.91,209.305 c 0.006,-0.009 0.019,-0.027 0.023,-0.037 -0.004,0.009 -0.017,0.027 -0.023,0.037 z"
   id="path26"
   inkscape:connector-curvature="0"
   style="fill:#f11930;fill-opacity:1" />
<path
   d="m 132.667,210.359 c 0.005,0.011 0.014,0.033 0.02,0.045 -0.006,-0.011 -0.015,-0.034 -0.02,-0.045 z"
   id="path28"
   inkscape:connector-curvature="0"
   style="fill:#f11930;fill-opacity:1" />
<path
   d="m 110.119,210.686 0.134,-0.008 c -0.04,0.07 -0.12,0.207 -0.16,0.276 0.007,-0.067 0.02,-0.203 0.026,-0.268 z"
   id="path30"
   inkscape:connector-curvature="0"
   style="fill:#f11930;fill-opacity:1" />
<path
   d="m 139.267,210.68 c 0.011,0.019 0.034,0.049 0.045,0.065 -0.012,-0.016 -0.034,-0.048 -0.045,-0.065 z"
   id="path32"
   inkscape:connector-curvature="0"
   style="fill:#f11930;fill-opacity:1" />
<path
   d="m 123.518,214.639 c 0.005,0.01 0.018,0.027 0.023,0.037 -0.007,-0.009 -0.018,-0.028 -0.023,-0.037 z"
   id="path34"
   inkscape:connector-curvature="0"
   style="fill:#f11930;fill-opacity:1" />
<path
   d="m 132.831,214.668 c 0.005,-0.01 0.013,-0.033 0.016,-0.043 -0.003,0.01 -0.011,0.033 -0.016,0.043 z"
   id="path36"
   inkscape:connector-curvature="0"
   style="fill:#f11930;fill-opacity:1" />
<path
   d="m 110.44,215.887 c 0.006,0.01 0.019,0.027 0.023,0.035 -0.006,-0.008 -0.017,-0.026 -0.023,-0.035 z"
   id="path38"
   inkscape:connector-curvature="0"
   style="fill:#f11930;fill-opacity:1" />
<path
   d="m 107.301,217.184 c 0.004,-0.01 0.012,-0.035 0.016,-0.045 -0.004,0.009 -0.012,0.034 -0.016,0.045 z"
   id="path40"
   inkscape:connector-curvature="0"
   style="fill:#f11930;fill-opacity:1" />
<path
   d="m 123.514,217.156 c 0.011,0.004 0.033,0.011 0.044,0.015 -0.011,-0.004 -0.033,-0.01 -0.044,-0.015 z"
   id="path42"
   inkscape:connector-curvature="0"
   style="fill:#f11930;fill-opacity:1" />
<path
   d="m 112.637,217.639 c 0.011,0.004 0.033,0.01 0.044,0.017 -0.012,-0.008 -0.034,-0.013 -0.044,-0.017 z"
   id="path44"
   inkscape:connector-curvature="0"
   style="fill:#f11930;fill-opacity:1" />
<path
   d="m 126.048,218.875 c 0.006,0.008 0.019,0.023 0.023,0.033 -0.005,-0.01 -0.017,-0.025 -0.023,-0.033 z"
   id="path46"
   inkscape:connector-curvature="0"
   style="fill:#f11930;fill-opacity:1" />
<path
   d="m 133.283,218.898 c 0.01,-0.004 0.033,-0.015 0.045,-0.02 -0.01,0.008 -0.035,0.017 -0.045,0.02 z"
   id="path48"
   inkscape:connector-curvature="0"
   style="fill:#f11930;fill-opacity:1" />
<path
   d="m 116.262,220.141 0.133,-0.002 c -0.039,0.067 -0.119,0.201 -0.16,0.271 0.009,-0.068 0.021,-0.204 0.027,-0.269 z"
   id="path50"
   inkscape:connector-curvature="0"
   style="fill:#f11930;fill-opacity:1" />
<path
   d="m 126.836,220.299 c 0.003,0.01 0.009,0.03 0.015,0.041 -0.006,-0.011 -0.012,-0.031 -0.015,-0.041 z"
   id="path52"
   inkscape:connector-curvature="0"
   style="fill:#f11930;fill-opacity:1" />
<path
   d="m 128.249,223.648 c 0.005,-0.013 0.015,-0.031 0.019,-0.043 -0.004,0.012 -0.014,0.034 -0.019,0.043 z"
   id="path54"
   inkscape:connector-curvature="0"
   style="fill:#f11930;fill-opacity:1" />
<path
   d="m 114.547,224.545 c 0.004,0.012 0.013,0.033 0.016,0.044 -0.002,-0.011 -0.012,-0.032 -0.016,-0.044 z"
   id="path56"
   inkscape:connector-curvature="0"
   style="fill:#f11930;fill-opacity:1" />
<path
   d="m 114.708,225.02 c 0.003,0.01 0.011,0.033 0.014,0.045 -0.002,-0.012 -0.01,-0.036 -0.014,-0.045 z"
   id="path58"
   inkscape:connector-curvature="0"
   style="fill:#f11930;fill-opacity:1" />
<path
   d="m 135.024,226.016 c 0.004,-0.01 0.02,-0.026 0.024,-0.039 -0.006,0.011 -0.02,0.029 -0.024,0.039 z"
   id="path60"
   inkscape:connector-curvature="0"
   style="fill:#f11930;fill-opacity:1" />
<path
   d="m 124.775,226.328 c 0.012,-0.008 0.028,-0.02 0.038,-0.023 -0.01,0.006 -0.028,0.015 -0.038,0.023 z"
   id="path62"
   inkscape:connector-curvature="0"
   style="fill:#f11930;fill-opacity:1" />
<path
   d="m 119.103,226.771 c 0.014,0.004 0.032,0.015 0.043,0.019 -0.012,-0.004 -0.032,-0.015 -0.043,-0.019 z"
   id="path64"
   inkscape:connector-curvature="0"
   style="fill:#f11930;fill-opacity:1" />
<path
   d="m 123.516,226.939 c 0.009,-0.002 0.032,-0.01 0.042,-0.015 -0.011,0.006 -0.033,0.014 -0.042,0.015 z"
   id="path66"
   inkscape:connector-curvature="0"
   style="fill:#f11930;fill-opacity:1" />
<path
   d="m 132.026,228.678 c 0.013,-0.005 0.03,-0.015 0.041,-0.02 -0.011,0.005 -0.03,0.015 -0.041,0.02 z"
   id="path68"
   inkscape:connector-curvature="0"
   style="fill:#f11930;fill-opacity:1" />
<path
   d="m 130.284,231.361 c 0.013,-0.008 0.035,-0.023 0.049,-0.03 -0.012,0.006 -0.036,0.023 -0.049,0.03 z"
   id="path70"
   inkscape:connector-curvature="0"
   style="fill:#f11930;fill-opacity:1" />
<path
   d="m 119.111,233.598 c 0.067,0.041 0.2,0.123 0.268,0.162 -0.066,-0.006 -0.2,-0.021 -0.27,-0.027 z"
   id="path72"
   inkscape:connector-curvature="0"
   style="fill:#e74b3c" />
<g
   id="g78"
   transform="translate(0,-15)">
	<g
   id="g76">
		<path
   d="m 125.561,202.384 c 1.311,-0.606 2.761,-0.767 4.175,-0.974 0.485,-0.096 0.953,0.111 1.433,0.15 0.378,0.006 0.756,-0.043 1.136,-0.002 0.755,0.062 1.435,0.438 2.169,0.594 0.5,0.133 1.023,0.127 1.524,0.256 0.528,0.138 0.908,0.621 1.476,0.66 0.431,0.05 0.814,0.26 1.189,0.463 0.063,0.529 0.029,1.063 0.033,1.595 0.102,0.467 0.351,0.94 0.181,1.426 -0.372,1.181 -0.628,2.407 -1.16,3.531 -0.806,1.578 -1.796,3.131 -3.273,4.16 -0.458,0.562 -1.019,1.028 -1.731,1.217 1.312,0.845 2.576,1.854 3.325,3.259 0.515,0.954 0.878,2.028 0.813,3.125 -0.021,0.605 -0.023,1.301 0.464,1.745 0.708,0.642 1.433,1.282 1.954,2.093 0.011,0.019 0.034,0.049 0.045,0.065 0.536,0.829 0.953,1.748 1.149,2.718 0.137,1.092 0.158,2.207 -0.021,3.292 -0.349,1.263 -1.212,2.287 -1.729,3.476 -1.063,2.338 -1.066,5.136 -2.754,7.187 -1.422,1.877 -3.697,2.697 -5.625,3.917 -0.015,0.006 -0.037,0.021 -0.049,0.03 -2.252,1.417 -4.398,3.098 -6.97,3.915 -1.466,0.375 -3.006,0.285 -4.47,-0.051 -0.415,-0.191 -0.835,-0.366 -1.247,-0.565 -0.021,-0.013 -0.063,-0.034 -0.085,-0.045 -1.027,-0.584 -1.873,-1.435 -2.912,-1.998 -0.018,-0.013 -0.055,-0.033 -0.072,-0.046 -0.231,-0.148 -0.471,-0.288 -0.711,-0.424 -0.021,-0.012 -0.06,-0.032 -0.079,-0.047 -1.01,-0.588 -2.052,-1.119 -3.072,-1.686 -0.021,-0.011 -0.06,-0.035 -0.08,-0.046 -1.836,-1.051 -3.643,-2.374 -4.605,-4.315 -0.728,-1.332 -0.695,-2.912 -1.327,-4.281 -0.008,-0.021 -0.023,-0.063 -0.031,-0.084 -0.72,-1.828 -1.891,-3.481 -2.336,-5.418 -0.485,-2.705 0.646,-5.649 2.834,-7.316 0.227,-0.202 0.478,-0.396 0.612,-0.675 0.109,-0.521 0.084,-1.06 0.155,-1.584 0.105,-1.179 0.493,-2.323 1.087,-3.343 0.013,-0.021 0.037,-0.06 0.05,-0.076 0.746,-1.2 1.882,-2.069 3.073,-2.797 -0.979,-0.25 -1.578,-1.098 -2.322,-1.705 -1.08,-0.907 -1.846,-2.116 -2.521,-3.338 -0.69,-1.209 -0.896,-2.604 -1.319,-3.914 -0.186,-0.469 0.078,-0.93 0.186,-1.379 0.018,-0.521 -0.248,-1.129 0.122,-1.584 0.442,-0.541 1.257,-0.315 1.771,-0.732 0.566,-0.434 1.295,-0.51 1.976,-0.612 1.085,-0.114 2.06,-0.793 3.178,-0.68 0.637,0.123 1.253,-0.253 1.885,-0.06 0.571,0.127 1.14,0.281 1.728,0.293 1.167,0.052 2.28,0.484 3.293,1.043 0.705,0.404 1.421,0.824 1.96,1.442 0.016,0.017 0.044,0.052 0.059,0.07 0.205,0.276 0.385,0.571 0.561,0.866 0.015,0.027 0.042,0.08 0.057,0.104 0.148,0.328 0.292,0.661 0.438,0.991 0.009,0.021 0.028,0.066 0.038,0.09 0.062,0.146 0.187,0.439 0.25,0.586 0.278,-0.676 0.485,-1.388 0.896,-2.001 0.745,-1.194 1.954,-2.016 3.226,-2.581 z m -12.77,0.255 c 0.083,0.271 0.175,0.539 0.263,0.812 -0.708,-0.144 -1.334,-0.579 -2.06,-0.667 0.039,0.273 0.167,0.521 0.303,0.759 -0.676,-0.116 -1.329,-0.351 -2.01,-0.435 0.088,0.25 0.169,0.502 0.246,0.754 -0.813,-0.188 -1.634,-0.351 -2.472,-0.256 0.096,0.242 0.217,0.473 0.338,0.701 -0.67,-0.012 -1.342,0 -2.013,-0.018 0.166,0.643 0.549,1.214 0.805,1.827 -0.338,-0.007 -0.678,-0.001 -1.017,0.016 0.281,0.583 0.813,0.978 1.241,1.445 -0.005,0.036 -0.019,0.108 -0.022,0.146 -0.304,0.039 -0.611,0.053 -0.9,0.16 0.488,0.492 1.008,0.967 1.438,1.516 -0.265,0.027 -0.53,0.053 -0.792,0.08 0.442,0.601 1.15,0.937 1.618,1.517 -0.306,0.007 -0.611,0.01 -0.917,0.028 0.639,0.606 1.513,0.902 2.167,1.494 -0.25,0.054 -0.499,0.116 -0.701,0.276 0.66,0.226 1.275,0.604 1.972,0.697 0.099,0.267 -0.264,0.426 -0.161,0.687 0.722,0.063 1.432,0.247 2.157,0.252 -0.104,0.211 -0.195,0.428 -0.285,0.648 0.774,-0.11 1.568,0.078 2.333,-0.131 1.309,-0.23 2.579,-0.934 3.334,-2.035 0.373,-0.498 0.262,-1.197 -0.215,-1.584 -2.063,-1.824 -4.473,-3.191 -6.799,-4.648 l 0.05,-0.113 c 2.438,0.932 4.774,2.139 6.892,3.668 0.375,0.301 0.768,0.58 1.181,0.828 1.178,-0.371 1.886,-1.72 1.604,-2.91 -0.209,-1.532 -1.131,-2.85 -2.143,-3.971 -0.104,0.221 -0.21,0.443 -0.314,0.664 -0.578,-0.503 -0.984,-1.228 -1.652,-1.605 -0.017,0.294 -0.023,0.588 -0.025,0.882 -0.5,-0.351 -0.922,-0.799 -1.415,-1.147 -0.183,0.185 -0.146,0.463 -0.167,0.696 -0.674,-0.248 -1.213,-0.746 -1.862,-1.033 z m 15.544,1.028 c -0.026,-0.251 -0.074,-0.501 -0.162,-0.737 -0.457,0.342 -0.916,0.688 -1.316,1.101 -0.308,-0.165 -0.13,-0.798 -0.518,-0.755 -0.457,0.492 -0.834,1.051 -1.26,1.566 -0.126,-0.214 -0.25,-0.436 -0.438,-0.603 -1.306,1.13 -1.97,2.845 -2.104,4.534 0.051,0.853 0.479,1.74 1.235,2.17 0.799,0.214 1.31,-0.525 1.886,-0.924 2.097,-1.441 4.382,-2.627 6.778,-3.482 -0.1,0.177 -0.299,0.248 -0.461,0.35 -1.733,0.982 -3.508,1.937 -5.02,3.248 -0.599,0.529 -1.455,0.799 -1.831,1.549 -0.233,0.682 0.223,1.36 0.68,1.832 1.123,1.008 2.602,1.612 4.11,1.68 0.337,-0.019 0.738,0.039 0.996,-0.235 -0.132,-0.167 -0.235,-0.349 -0.316,-0.542 0.768,0.039 1.508,-0.197 2.273,-0.217 0.064,-0.26 -0.206,-0.445 -0.181,-0.699 0.643,-0.156 1.297,-0.372 1.853,-0.732 -0.173,-0.1 -0.351,-0.192 -0.522,-0.287 0.619,-0.59 1.496,-0.851 2.086,-1.469 -0.284,-0.009 -0.565,-0.012 -0.85,-0.022 0.45,-0.593 1.143,-0.943 1.604,-1.527 -0.281,-0.024 -0.564,-0.042 -0.847,-0.058 0.443,-0.566 1.054,-0.999 1.432,-1.612 -0.33,-0.024 -0.656,-0.046 -0.982,-0.079 0.42,-0.563 0.99,-1.002 1.377,-1.593 -0.358,-0.011 -0.715,-0.005 -1.071,0.001 0.21,-0.643 0.671,-1.191 0.816,-1.85 -0.666,0.022 -1.33,0.002 -1.994,0.021 0.104,-0.233 0.217,-0.466 0.334,-0.694 -0.876,-0.053 -1.758,0.017 -2.588,0.324 0.11,-0.268 0.183,-0.545 0.216,-0.831 -0.628,0.146 -1.254,0.306 -1.882,0.44 0.158,-0.282 0.303,-0.572 0.418,-0.874 -0.744,0.266 -1.492,0.519 -2.23,0.801 0.124,-0.303 0.256,-0.603 0.379,-0.901 -0.673,0.294 -1.228,0.81 -1.9,1.106 z m -11.688,13.737 c -0.367,0.41 -0.368,1.017 -0.222,1.517 0.006,0.011 0.013,0.028 0.018,0.037 0.633,1.103 1.861,1.718 3.063,1.983 1.907,0.389 3.993,0.354 5.745,-0.575 0.01,-0.007 0.025,-0.017 0.035,-0.021 0.646,-0.375 1.245,-1.005 1.235,-1.799 -0.043,-1.121 -0.983,-1.918 -1.861,-2.473 -2.517,-1.584 -6.163,-1.024 -8.013,1.331 z m -3.987,-1.281 c -2.634,0.375 -4.836,2.628 -5.211,5.252 -0.058,0.566 -0.237,1.283 0.238,1.723 0.313,0.074 0.591,-0.139 0.859,-0.262 2.541,-1.445 4.777,-3.411 6.593,-5.695 0.204,-0.246 0.471,-0.697 0.028,-0.852 -0.792,-0.269 -1.678,-0.348 -2.507,-0.166 z m 14.237,0.419 c 0.042,0.224 0.122,0.438 0.244,0.634 0.007,0.008 0.018,0.026 0.021,0.034 1.435,1.896 3.217,3.521 5.172,4.87 0.009,0.007 0.025,0.02 0.036,0.025 0.106,0.069 0.318,0.211 0.426,0.279 0.011,0.01 0.032,0.021 0.042,0.026 0.52,0.323 1.031,0.696 1.631,0.862 0.411,-0.092 0.524,-0.588 0.491,-0.95 -0.043,-0.83 -0.211,-1.664 -0.546,-2.431 -0.005,-0.011 -0.017,-0.031 -0.021,-0.041 -0.63,-1.472 -1.916,-2.615 -3.425,-3.123 -0.013,-0.004 -0.035,-0.013 -0.045,-0.017 -0.629,-0.202 -1.285,-0.347 -1.943,-0.383 -0.696,0.034 -1.433,-0.115 -2.083,0.215 z m -2.234,5.365 c -0.012,0.006 -0.026,0.017 -0.036,0.022 -1.436,0.83 -2.207,2.543 -2.121,4.166 -0.082,1.254 0.35,2.491 1.011,3.543 0.005,0.01 0.018,0.026 0.023,0.036 1.281,2.029 3.822,3.466 6.239,2.853 1.434,-0.338 2.592,-1.473 3.05,-2.858 0.005,-0.01 0.013,-0.033 0.016,-0.043 0.455,-1.366 0.367,-2.888 -0.16,-4.22 -0.005,-0.012 -0.014,-0.035 -0.02,-0.047 -0.782,-1.955 -2.556,-3.518 -4.627,-3.948 -1.137,-0.172 -2.369,-0.117 -3.375,0.496 z m -10.716,0.01 c -0.011,0.003 -0.031,0.01 -0.044,0.017 -1.201,0.442 -2.229,1.293 -2.968,2.336 -0.006,0.008 -0.019,0.026 -0.023,0.037 -0.241,0.437 -0.647,0.86 -0.657,1.373 l -0.134,0.008 c -0.008,0.065 -0.021,0.201 -0.025,0.27 -0.16,0.284 -0.207,0.609 -0.285,0.924 -0.199,1.354 -0.146,2.834 0.632,4.01 0.006,0.01 0.019,0.026 0.023,0.034 0.514,0.787 1.283,1.407 2.173,1.718 0.011,0.004 0.033,0.01 0.044,0.016 1.397,0.453 2.997,0.305 4.271,-0.445 2.73,-1.508 4.19,-5.125 2.976,-8.052 -0.005,-0.011 -0.016,-0.033 -0.021,-0.044 -0.462,-1.045 -1.354,-1.895 -2.438,-2.268 -1.141,-0.415 -2.395,-0.346 -3.524,0.066 z m 21.062,2.819 c -0.338,0.238 -0.49,0.658 -0.537,1.055 -0.187,0.988 -0.134,2.005 -0.015,2.999 0.064,1.403 0.383,2.8 0.942,4.088 0.208,0.442 0.425,0.938 0.879,1.176 0.383,0.25 0.772,-0.135 1.021,-0.401 0.917,-1.137 1.399,-2.62 1.325,-4.082 -0.021,-1.842 -1.088,-3.524 -2.479,-4.668 -0.304,-0.282 -0.768,-0.398 -1.136,-0.167 z m -28.82,0.323 c -1.124,0.822 -1.975,2.028 -2.315,3.383 -0.483,1.938 -0.031,4.162 1.389,5.61 0.213,0.253 0.544,0.263 0.848,0.25 0.635,-0.546 0.912,-1.356 1.192,-2.118 0.004,-0.01 0.012,-0.035 0.016,-0.045 0.584,-1.736 0.687,-3.593 0.676,-5.412 -0.039,-0.767 -0.14,-1.844 -1.081,-2 -0.253,0.086 -0.512,0.169 -0.725,0.332 z m 10.656,9.073 c -0.167,0.319 -0.492,0.625 -0.45,1.007 l -0.133,0.002 c -0.006,0.065 -0.018,0.201 -0.027,0.269 -0.956,2.446 0.474,5.389 2.867,6.362 0.012,0.004 0.032,0.016 0.043,0.02 1.373,0.598 2.958,0.646 4.37,0.148 0.009,-0.002 0.032,-0.01 0.042,-0.014 0.428,-0.148 0.836,-0.354 1.217,-0.598 0.012,-0.008 0.028,-0.02 0.038,-0.023 0.643,-0.429 1.195,-0.994 1.593,-1.656 0.797,-1.269 0.894,-2.901 0.445,-4.309 -0.005,-0.011 -0.012,-0.031 -0.015,-0.041 -0.177,-0.503 -0.437,-0.974 -0.765,-1.391 -0.006,-0.01 -0.019,-0.025 -0.023,-0.033 -0.64,-0.794 -1.529,-1.375 -2.489,-1.704 -0.011,-0.004 -0.034,-0.011 -0.044,-0.015 -2.333,-0.806 -5.231,-0.105 -6.669,1.976 z m 16.438,-0.234 c -2.213,0.814 -4.068,2.547 -5.017,4.707 -0.004,0.011 -0.014,0.03 -0.019,0.043 -0.476,1.166 -0.786,2.427 -0.697,3.692 0.001,0.81 0.498,1.608 1.311,1.813 1.067,0.217 2.184,-0.037 3.163,-0.478 0.013,-0.005 0.03,-0.015 0.041,-0.02 1.213,-0.57 2.245,-1.511 2.957,-2.646 0.004,-0.009 0.02,-0.027 0.024,-0.039 0.71,-1.144 1.09,-2.498 1.013,-3.849 0.044,-0.955 -0.118,-1.983 -0.725,-2.751 -0.466,-0.586 -1.321,-0.792 -2.007,-0.496 -0.009,0.012 -0.034,0.021 -0.044,0.024 z m -26.491,2.131 c -0.835,3.605 1.95,7.609 5.639,8.033 0.523,-0.011 1.089,0.092 1.561,-0.198 0.538,-0.237 0.815,-0.813 0.947,-1.354 0.037,-0.82 0.068,-1.66 -0.215,-2.445 -0.003,-0.012 -0.011,-0.035 -0.014,-0.045 -0.037,-0.105 -0.109,-0.321 -0.146,-0.431 -0.003,-0.011 -0.012,-0.032 -0.016,-0.044 -0.635,-1.699 -1.849,-3.168 -3.377,-4.137 -0.889,-0.527 -1.933,-1.04 -2.991,-0.829 -0.732,0.101 -1.211,0.784 -1.388,1.45 z m 11.949,8.078 c -0.813,0.205 -1.612,0.502 -2.325,0.947 -0.355,0.213 -0.625,0.635 -0.508,1.059 0.563,1.033 1.526,1.789 2.565,2.304 0.204,0.076 0.399,0.259 0.635,0.181 l -0.002,0.135 c 0.068,0.008 0.202,0.021 0.27,0.027 2.633,0.928 5.8,-0.236 7.323,-2.552 0.413,-0.537 -0.023,-1.263 -0.564,-1.499 -2.277,-1.132 -4.957,-1.169 -7.394,-0.602 z"
   id="path74"
   inkscape:connector-curvature="0"
   style="fill:none" />
	</g>
</g>
<path
   d="m 112.791,187.639 c 0.647,0.287 1.188,0.785 1.856,1.028 0.021,-0.235 -0.017,-0.515 0.167,-0.698 0.493,0.35 0.915,0.801 1.415,1.149 0.002,-0.294 0.011,-0.588 0.025,-0.882 0.668,0.379 1.074,1.104 1.652,1.605 0.104,-0.221 0.21,-0.441 0.314,-0.665 1.012,1.123 1.932,2.438 2.142,3.974 0.281,1.188 -0.427,2.539 -1.604,2.91 -0.413,-0.248 -0.806,-0.528 -1.181,-0.83 -2.115,-1.529 -4.454,-2.736 -6.892,-3.668 l -0.05,0.112 c 2.326,1.457 4.734,2.825 6.799,4.649 0.478,0.387 0.588,1.086 0.215,1.584 -0.755,1.104 -2.025,1.805 -3.334,2.033 -0.764,0.209 -1.559,0.021 -2.333,0.133 0.09,-0.223 0.183,-0.438 0.285,-0.649 -0.727,-0.004 -1.437,-0.188 -2.159,-0.252 -0.101,-0.26 0.262,-0.419 0.163,-0.687 -0.694,-0.094 -1.312,-0.473 -1.972,-0.696 0.202,-0.16 0.451,-0.224 0.701,-0.274 -0.654,-0.593 -1.527,-0.889 -2.167,-1.496 0.306,-0.02 0.61,-0.021 0.917,-0.028 -0.468,-0.58 -1.176,-0.916 -1.618,-1.517 0.262,-0.027 0.528,-0.052 0.792,-0.078 -0.43,-0.549 -0.947,-1.023 -1.438,-1.518 0.288,-0.107 0.599,-0.122 0.901,-0.161 0.005,-0.034 0.019,-0.106 0.022,-0.145 -0.43,-0.47 -0.96,-0.862 -1.241,-1.445 0.338,-0.019 0.678,-0.021 1.017,-0.017 -0.256,-0.612 -0.64,-1.184 -0.805,-1.826 0.671,0.017 1.342,0.005 2.013,0.017 -0.121,-0.229 -0.244,-0.456 -0.338,-0.698 0.838,-0.097 1.659,0.065 2.471,0.254 -0.075,-0.252 -0.156,-0.502 -0.245,-0.752 0.681,0.084 1.334,0.315 2.01,0.433 -0.136,-0.239 -0.267,-0.485 -0.303,-0.759 0.725,0.088 1.351,0.521 2.06,0.666 -0.082,-0.267 -0.173,-0.536 -0.257,-0.806 z"
   id="path80"
   inkscape:connector-curvature="0"
   style="fill:#017005;fill-opacity:1" />
<path
   d="m 128.335,188.667 c 0.671,-0.296 1.227,-0.812 1.898,-1.108 -0.123,0.299 -0.255,0.6 -0.379,0.901 0.738,-0.284 1.486,-0.536 2.23,-0.801 -0.115,0.302 -0.26,0.591 -0.418,0.874 0.628,-0.137 1.254,-0.297 1.882,-0.44 -0.033,0.286 -0.104,0.563 -0.216,0.831 0.83,-0.309 1.711,-0.377 2.588,-0.326 -0.117,0.23 -0.231,0.463 -0.334,0.696 0.664,-0.019 1.328,0.002 1.994,-0.022 -0.146,0.66 -0.606,1.207 -0.816,1.852 0.356,-0.006 0.713,-0.014 1.071,-0.001 -0.387,0.59 -0.957,1.028 -1.377,1.593 0.327,0.033 0.654,0.057 0.982,0.079 -0.377,0.613 -0.987,1.046 -1.432,1.61 0.28,0.018 0.563,0.033 0.847,0.06 -0.46,0.584 -1.152,0.937 -1.604,1.527 0.282,0.012 0.564,0.015 0.85,0.022 -0.59,0.618 -1.468,0.877 -2.086,1.469 0.173,0.095 0.351,0.188 0.522,0.285 -0.556,0.362 -1.21,0.58 -1.853,0.734 -0.025,0.254 0.246,0.439 0.181,0.699 -0.768,0.02 -1.508,0.256 -2.273,0.217 0.081,0.193 0.187,0.375 0.316,0.542 -0.258,0.276 -0.659,0.218 -0.996,0.237 -1.51,-0.067 -2.988,-0.672 -4.11,-1.682 -0.457,-0.472 -0.913,-1.15 -0.68,-1.83 0.376,-0.75 1.232,-1.021 1.831,-1.551 1.512,-1.313 3.285,-2.266 5.02,-3.247 0.162,-0.103 0.362,-0.173 0.461,-0.351 -2.396,0.854 -4.683,2.041 -6.778,3.48 -0.576,0.399 -1.084,1.141 -1.886,0.926 -0.757,-0.433 -1.187,-1.317 -1.235,-2.172 0.135,-1.688 0.799,-3.401 2.104,-4.533 0.188,0.168 0.313,0.39 0.438,0.604 0.426,-0.517 0.803,-1.074 1.26,-1.564 0.388,-0.045 0.21,0.589 0.518,0.752 0.4,-0.41 0.859,-0.756 1.316,-1.098 0.09,0.236 0.138,0.485 0.164,0.736 z"
   id="path82"
   inkscape:connector-curvature="0"
   style="fill:#017005;fill-opacity:1" />
<path
   d="m 120.03,189.254 c 0.017,0.018 0.046,0.053 0.06,0.07 -0.015,-0.017 -0.045,-0.053 -0.06,-0.07 z"
   id="path84"
   inkscape:connector-curvature="0"
   style="fill:#ad4932" />
<path
   d="m 120.649,190.191 c 0.015,0.025 0.042,0.078 0.057,0.104 -0.015,-0.024 -0.044,-0.076 -0.057,-0.104 z"
   id="path86"
   inkscape:connector-curvature="0"
   style="fill:#ad4932" />
<path
   d="m 121.142,191.286 c 0.009,0.022 0.028,0.065 0.038,0.09 -0.01,-0.022 -0.029,-0.067 -0.038,-0.09 z"
   id="path88"
   inkscape:connector-curvature="0"
   style="fill:#ad4932" />
<path
   d="m 116.647,202.404 c 1.852,-2.354 5.495,-2.915 8.014,-1.329 0.877,0.555 1.818,1.352 1.861,2.473 0.008,0.793 -0.589,1.423 -1.235,1.798 -0.01,0.004 -0.025,0.014 -0.035,0.021 -1.751,0.929 -3.837,0.964 -5.745,0.574 -1.202,-0.266 -2.431,-0.881 -3.063,-1.982 -0.005,-0.009 -0.012,-0.025 -0.018,-0.037 -0.146,-0.501 -0.145,-1.109 0.221,-1.518 z"
   id="path90"
   inkscape:connector-curvature="0"
   style="fill:#f11930;fill-opacity:1" />
<path
   d="m 112.66,201.123 c 0.827,-0.182 1.714,-0.104 2.51,0.167 0.44,0.155 0.175,0.604 -0.028,0.853 -1.814,2.284 -4.052,4.25 -6.593,5.694 -0.27,0.124 -0.546,0.336 -0.859,0.263 -0.477,-0.439 -0.296,-1.156 -0.238,-1.724 0.372,-2.625 2.576,-4.878 5.208,-5.253 z"
   id="path92"
   inkscape:connector-curvature="0"
   style="fill:#f11930;fill-opacity:1" />
<path
   d="m 126.897,201.542 c 0.649,-0.33 1.388,-0.181 2.084,-0.21 0.658,0.036 1.313,0.182 1.943,0.383 0.01,0.004 0.032,0.014 0.045,0.016 1.509,0.51 2.795,1.652 3.425,3.123 0.004,0.012 0.016,0.031 0.021,0.041 0.335,0.768 0.502,1.602 0.546,2.432 0.033,0.361 -0.08,0.857 -0.491,0.949 -0.6,-0.164 -1.111,-0.539 -1.631,-0.861 -0.011,-0.006 -0.032,-0.02 -0.042,-0.025 -0.105,-0.068 -0.318,-0.209 -0.426,-0.281 -0.011,-0.006 -0.026,-0.02 -0.036,-0.024 -1.955,-1.351 -3.737,-2.974 -5.172,-4.87 -0.008,-0.008 -0.017,-0.025 -0.021,-0.033 -0.122,-0.202 -0.202,-0.416 -0.245,-0.64 z"
   id="path94"
   inkscape:connector-curvature="0"
   style="fill:#f11930;fill-opacity:1" />
<path
   d="m 106.977,203.352 c 0.015,-0.021 0.037,-0.059 0.05,-0.076 -0.013,0.017 -0.037,0.056 -0.05,0.076 z"
   id="path96"
   inkscape:connector-curvature="0"
   style="fill:#f11930;fill-opacity:1" />
<path
   d="m 124.663,206.907 c 1.006,-0.612 2.236,-0.667 3.376,-0.497 2.071,0.432 3.846,1.994 4.627,3.949 0.005,0.011 0.014,0.033 0.02,0.046 0.527,1.331 0.615,2.854 0.16,4.22 -0.003,0.01 -0.011,0.033 -0.016,0.043 -0.458,1.385 -1.617,2.521 -3.048,2.857 -2.417,0.615 -4.958,-0.82 -6.241,-2.852 -0.007,-0.009 -0.02,-0.025 -0.023,-0.035 -0.661,-1.054 -1.093,-2.291 -1.011,-3.543 -0.086,-1.625 0.687,-3.337 2.121,-4.169 0.009,-0.002 0.025,-0.013 0.035,-0.019 z"
   id="path98"
   inkscape:connector-curvature="0"
   style="fill:#f11930;fill-opacity:1" />
<path
   d="m 113.947,206.917 c 1.13,-0.412 2.384,-0.479 3.522,-0.071 1.083,0.373 1.976,1.223 2.437,2.27 0.006,0.011 0.018,0.031 0.021,0.044 1.216,2.927 -0.244,6.544 -2.976,8.052 -1.273,0.75 -2.873,0.896 -4.271,0.445 -0.011,-0.006 -0.033,-0.014 -0.044,-0.018 -0.89,-0.309 -1.659,-0.929 -2.173,-1.716 -0.007,-0.008 -0.02,-0.024 -0.023,-0.034 -0.778,-1.176 -0.831,-2.656 -0.632,-4.01 0.078,-0.313 0.125,-0.64 0.285,-0.924 0.04,-0.068 0.12,-0.206 0.16,-0.275 0.009,-0.513 0.416,-0.938 0.657,-1.375 0.006,-0.009 0.019,-0.027 0.023,-0.037 0.738,-1.041 1.767,-1.893 2.968,-2.336 0.014,-0.005 0.035,-0.012 0.046,-0.015 z"
   id="path100"
   inkscape:connector-curvature="0"
   style="fill:#f11930;fill-opacity:1" />
<path
   d="m 135.009,209.736 c 0.368,-0.231 0.833,-0.115 1.138,0.166 1.392,1.143 2.459,2.828 2.479,4.668 0.074,1.461 -0.408,2.943 -1.325,4.082 -0.248,0.267 -0.638,0.652 -1.021,0.402 -0.454,-0.236 -0.671,-0.734 -0.879,-1.178 -0.562,-1.288 -0.878,-2.686 -0.942,-4.088 -0.119,-0.994 -0.171,-2.012 0.015,-2.999 0.045,-0.394 0.197,-0.814 0.535,-1.053 z"
   id="path102"
   inkscape:connector-curvature="0"
   style="fill:#f11930;fill-opacity:1" />
<path
   d="m 106.189,210.059 c 0.213,-0.162 0.474,-0.246 0.724,-0.332 0.94,0.155 1.042,1.232 1.081,2 0.011,1.818 -0.092,3.676 -0.676,5.412 -0.004,0.01 -0.012,0.034 -0.016,0.045 -0.28,0.762 -0.559,1.571 -1.192,2.117 -0.304,0.012 -0.635,0.001 -0.848,-0.25 -1.419,-1.449 -1.872,-3.672 -1.389,-5.611 0.342,-1.354 1.193,-2.56 2.316,-3.381 z"
   id="path104"
   inkscape:connector-curvature="0"
   style="fill:#f11930;fill-opacity:1" />
<path
   d="m 116.845,219.132 c 1.438,-2.081 4.336,-2.782 6.669,-1.976 0.011,0.004 0.033,0.011 0.044,0.015 0.96,0.329 1.851,0.91 2.489,1.704 0.006,0.008 0.019,0.023 0.023,0.033 0.329,0.417 0.588,0.888 0.765,1.391 0.003,0.01 0.009,0.03 0.015,0.041 0.447,1.406 0.352,3.04 -0.445,4.309 -0.396,0.662 -0.95,1.229 -1.593,1.656 -0.009,0.006 -0.026,0.017 -0.038,0.023 -0.381,0.244 -0.79,0.447 -1.217,0.598 -0.01,0.004 -0.033,0.012 -0.042,0.014 -1.412,0.498 -2.998,0.447 -4.37,-0.148 -0.011,-0.004 -0.031,-0.016 -0.043,-0.02 -2.395,-0.976 -3.823,-3.916 -2.867,-6.362 0.041,-0.068 0.122,-0.202 0.16,-0.271 -0.042,-0.382 0.283,-0.688 0.45,-1.007 z"
   id="path106"
   inkscape:connector-curvature="0"
   style="fill:#f11930;fill-opacity:1" />
<path
   d="m 133.329,218.881 c 0.686,-0.296 1.541,-0.091 2.007,0.496 0.605,0.77 0.769,1.797 0.725,2.751 0.078,1.351 -0.303,2.705 -1.013,3.849 -0.006,0.013 -0.021,0.03 -0.024,0.039 -0.712,1.135 -1.744,2.073 -2.957,2.646 -0.011,0.004 -0.028,0.014 -0.041,0.021 -0.979,0.438 -2.096,0.691 -3.163,0.478 -0.813,-0.205 -1.31,-1.005 -1.311,-1.813 -0.089,-1.267 0.223,-2.527 0.697,-3.693 0.005,-0.012 0.015,-0.03 0.019,-0.043 0.947,-2.159 2.804,-3.893 5.017,-4.707 0.008,-0.01 0.033,-0.019 0.044,-0.024 z"
   id="path108"
   inkscape:connector-curvature="0"
   style="fill:#f11930;fill-opacity:1" />
<path
   d="m 106.792,221.029 c 0.177,-0.666 0.657,-1.35 1.388,-1.45 1.059,-0.211 2.104,0.301 2.991,0.829 1.529,0.969 2.743,2.438 3.377,4.137 0.004,0.012 0.013,0.033 0.016,0.044 0.036,0.106 0.108,0.323 0.146,0.431 0.003,0.01 0.011,0.033 0.014,0.045 0.283,0.785 0.252,1.625 0.215,2.445 -0.132,0.543 -0.41,1.117 -0.948,1.354 -0.471,0.29 -1.035,0.188 -1.56,0.198 -3.689,-0.423 -6.475,-4.426 -5.639,-8.033 z"
   id="path110"
   inkscape:connector-curvature="0"
   style="fill:#f11930;fill-opacity:1" />
<path
   d="m 104.623,221.689 c 0.008,0.021 0.023,0.063 0.031,0.084 -0.006,-0.021 -0.023,-0.063 -0.031,-0.084 z"
   id="path112"
   inkscape:connector-curvature="0"
   style="fill:#f11930;fill-opacity:1" />
<path
   d="m 118.741,229.107 c 2.437,-0.567 5.115,-0.53 7.394,0.603 0.542,0.235 0.979,0.961 0.564,1.499 -1.523,2.316 -4.689,3.479 -7.323,2.552 -0.066,-0.038 -0.199,-0.12 -0.268,-0.161 -0.233,0.077 -0.431,-0.104 -0.635,-0.182 -1.039,-0.516 -2.004,-1.271 -2.565,-2.305 -0.118,-0.424 0.15,-0.844 0.508,-1.057 0.713,-0.447 1.512,-0.743 2.325,-0.949 z"
   id="path114"
   inkscape:connector-curvature="0"
   style="fill:#f11930;fill-opacity:1" />
<path
   d="m 110.588,230.37 c 0.021,0.011 0.061,0.034 0.08,0.046 -0.019,-0.012 -0.059,-0.035 -0.08,-0.046 z"
   id="path116"
   inkscape:connector-curvature="0"
   style="fill:#f11930;fill-opacity:1" />
<path
   d="m 113.741,232.102 c 0.019,0.014 0.058,0.034 0.077,0.047 -0.019,-0.013 -0.058,-0.035 -0.077,-0.047 z"
   id="path118"
   inkscape:connector-curvature="0"
   style="fill:#f11930;fill-opacity:1" />
<path
   d="m 114.531,232.57 c 0.019,0.014 0.056,0.035 0.072,0.047 -0.019,-0.012 -0.056,-0.034 -0.072,-0.047 z"
   id="path120"
   inkscape:connector-curvature="0"
   style="fill:#f11930;fill-opacity:1" />
<path
   d="m 117.515,234.615 c 0.021,0.011 0.063,0.033 0.085,0.045 -0.022,-0.012 -0.064,-0.034 -0.085,-0.045 z"
   id="path122"
   inkscape:connector-curvature="0"
   style="fill:#ad4932" />


</svg>